<svg xmlns="http://www.w3.org/2000/svg" width="365.4" height="365.4" viewBox="0 0 365.4 365.4">
  <defs>
    <style>
      .cls-1 {
        fill: #1cfeba;
      }
    </style>
  </defs>
  <g id="Layer_10" data-name="Layer 10">
    <rect class="cls-1" x="425.33" y="234.17" width="68.11" height="15.11" transform="translate(-339.84 307.94) rotate(-44.35)"/>
  </g>
  <g id="Layer_12_copy" data-name="Layer 12 copy">
    <path class="cls-1" d="M667.13,254.05,495,82H473.76l-172,172.16c0,8.29,0,12.93,0,21.21l172.15,172h21.22l172-172.16C667.13,267,667.13,262.33,667.13,254.05Zm-61.85,25.29-43.11,42.52-21.4-.15-.15,21.41-43.1,42.52-42.82-.29L348.4,277.59l43-42.39h0l12.81-12.81-.07,25.46,67.12,68,10.71.07.07-10.7L423.54,246l43.11-42.52,58.46,59.27,10.71.07.07-10.7L468.71,184l-25.34.07,12.8-12.79h0l43.11-42.52,106.3,107.76Z" transform="translate(-301.74 -82.03)"/>
  </g>
</svg>
