<svg xmlns="http://www.w3.org/2000/svg" width="802.26" height="177.4" viewBox="0 0 802.26 177.4">
  <defs>
    <style>
      .cls-1 {
        fill: #fff;
        stroke-width: 2px;
      }

      .cls-1, .cls-2 {
        stroke: #1d1d1b;
        stroke-miterlimit: 10;
      }

      .cls-2, .cls-3 {
        fill: #1cfeba;
      }
    </style>
  </defs>
  <g id="Layer_1" data-name="Layer 1">
    <g>
      <path class="cls-1" d="M121,463.12a1.73,1.73,0,0,1-.16-.8c0-1.17.64-1.76,1.92-1.76h8.48a1.52,1.52,0,0,1,1.6,1.28l21,67,17.6-31a5.25,5.25,0,0,1,1.76-1.84,4.09,4.09,0,0,1,2.24-.72h5a4.3,4.3,0,0,1,2.16.72,4,4,0,0,1,1.68,1.84l24.16,44a1,1,0,0,1,.16.64c0,.43-.27.64-.8.64h-6.08a4.09,4.09,0,0,1-2.24-.72,5.16,5.16,0,0,1-1.76-1.84l-20-35.36-20,35.36a4.45,4.45,0,0,1-4,2.56h-5.76a1.5,1.5,0,0,1-1.6-1.28Zm91.52,65.76a1.26,1.26,0,0,1-1.28,1,1.37,1.37,0,0,1-1.12-.64l-4.8-8.64a2.5,2.5,0,0,1-.32-1.12,1.73,1.73,0,0,1,.16-.8l18.08-56A4.46,4.46,0,0,1,224,461a1.67,1.67,0,0,1,1.36-.48h7.52a1.9,1.9,0,0,1,.8.24,1.05,1.05,0,0,1,.48,1,1.87,1.87,0,0,1-.16.8Z" transform="translate(-119.85 -407.15)"/>
      <path class="cls-1" d="M271.08,532.08h56.8a2.77,2.77,0,0,1,2,.88,2.93,2.93,0,0,1,.88,2.16v5.12a3,3,0,0,1-2.88,2.88H261.64a3,3,0,0,1-2.88-2.88V463.6a3,3,0,0,1,.88-2.16,2.76,2.76,0,0,1,2-.88h65.44a2.9,2.9,0,0,1,2.16.88,2.93,2.93,0,0,1,.88,2.16v5.12a2.73,2.73,0,0,1-.88,2,2.9,2.9,0,0,1-2.16.88h-56Zm8.8-34.56a2.74,2.74,0,0,1,2.88-2.88h40.16a2.89,2.89,0,0,1,2,.8,2.68,2.68,0,0,1,.88,2.08v5a2.67,2.67,0,0,1-.88,2.08,2.89,2.89,0,0,1-2,.8H282.76a2.74,2.74,0,0,1-2.88-2.88Z" transform="translate(-119.85 -407.15)"/>
      <path class="cls-1" d="M360.36,463.6a3.12,3.12,0,0,1,.8-2.16,2.69,2.69,0,0,1,2.09-.88h49.39a21.48,21.48,0,0,1,8.57,1.76,23.56,23.56,0,0,1,7.14,4.72,21.86,21.86,0,0,1,4.81,7,21.47,21.47,0,0,1,1.76,8.56,19.38,19.38,0,0,1-2.35,9.44,24.55,24.55,0,0,1-6.08,7.36,26.65,26.65,0,0,1,7.84,8.4,21.34,21.34,0,0,1,3,11.12,23.12,23.12,0,0,1-1.92,9.36,24.54,24.54,0,0,1-12.91,12.88,23.22,23.22,0,0,1-9.38,1.92H363.25a2.74,2.74,0,0,1-2.89-2.88Zm12.32,8v60.48h39.25a13.46,13.46,0,0,0,10-3.92,13,13,0,0,0,3.91-9.52,14.5,14.5,0,0,0-3.28-9.36q-3.27-4.08-9.36-4.08H384.52a2.74,2.74,0,0,1-2.88-2.88v-4.8a2.74,2.74,0,0,1,2.88-2.88h27.2a11,11,0,0,0,8.56-3.44,11.62,11.62,0,0,0,3.12-8.08A11,11,0,0,0,420,475a11.7,11.7,0,0,0-8.53-3.36Z" transform="translate(-119.85 -407.15)"/>
    </g>
  </g>
  <g id="Layer_2" data-name="Layer 2">
    <g>
      <path class="cls-1" d="M713.11,540.56a7.29,7.29,0,0,1,.32,1.12c0,1-.54,1.44-1.6,1.44h-9a2,2,0,0,1-1.92-1.28l-9.12-19h-38.4a1,1,0,0,1-1.12-1.12,1.73,1.73,0,0,1,.16-.8l3.52-7a2.36,2.36,0,0,1,2.4-1.6h28.32l-19.52-42.08-34.88,71.68a2,2,0,0,1-1.92,1.28h-8c-1.07,0-1.6-.48-1.6-1.44a6.18,6.18,0,0,1,.32-1.12l37.92-77a6,6,0,0,1,1.84-2.16,4.11,4.11,0,0,1,2.48-.88h7.52a4.13,4.13,0,0,1,2.48.88,6,6,0,0,1,1.84,2.16Z" transform="translate(-119.85 -407.15)"/>
      <path class="cls-1" d="M739,463.6a3.07,3.07,0,0,1,.8-2.16,2.65,2.65,0,0,1,2.08-.88h48.16a24.28,24.28,0,0,1,9.84,2,25.13,25.13,0,0,1,7.92,5.44,26.74,26.74,0,0,1,5.36,8,25.21,25.21,0,0,1,0,19.68A25.26,25.26,0,0,1,799.91,509a24.28,24.28,0,0,1-9.84,2H763.35a2.74,2.74,0,0,1-2.88-2.88v-5a2.74,2.74,0,0,1,2.88-2.88h24.8a15.55,15.55,0,0,0,5.84-1.12,15.72,15.72,0,0,0,4.88-3,14.14,14.14,0,0,0,3.28-4.56,13.55,13.55,0,0,0,1.2-5.68,13,13,0,0,0-1.2-5.6,14.48,14.48,0,0,0-3.28-4.48,16,16,0,0,0-10.72-4.16h-36.8v68.64a2.7,2.7,0,0,1-.88,2.08,3.07,3.07,0,0,1-2.16.8h-6.4a2.74,2.74,0,0,1-2.88-2.88Z" transform="translate(-119.85 -407.15)"/>
      <path class="cls-1" d="M845,463.6a3.07,3.07,0,0,1,.8-2.16,2.65,2.65,0,0,1,2.08-.88H896a24.32,24.32,0,0,1,9.84,2,25.24,25.24,0,0,1,7.92,5.44,26.53,26.53,0,0,1,5.35,8,25.21,25.21,0,0,1,0,19.68A25.2,25.2,0,0,1,905.83,509a24.32,24.32,0,0,1-9.84,2H869.26a2.74,2.74,0,0,1-2.88-2.88v-5a2.74,2.74,0,0,1,2.88-2.88h24.81a15.55,15.55,0,0,0,5.84-1.12,15.72,15.72,0,0,0,4.88-3,14.29,14.29,0,0,0,3.28-4.56,13.55,13.55,0,0,0,1.19-5.68,13,13,0,0,0-1.19-5.6,14.65,14.65,0,0,0-3.28-4.48,16,16,0,0,0-10.72-4.16H857.26v68.64a2.67,2.67,0,0,1-.88,2.08,3,3,0,0,1-2.16.8h-6.39a2.74,2.74,0,0,1-2.88-2.88Z" transform="translate(-119.85 -407.15)"/>
    </g>
  </g>
  <g id="Layer_3" data-name="Layer 3">
    <g>
      <path class="cls-2" d="M599.5,578.52a1.11,1.11,0,0,1,1.26-1.26H605a1.27,1.27,0,0,1,.87.35,1.15,1.15,0,0,1,.39.91v4.27a1.18,1.18,0,0,1-.39.91,1.27,1.27,0,0,1-.87.35h-4.2a1.11,1.11,0,0,1-1.26-1.26Z" transform="translate(-119.85 -407.15)"/>
      <path class="cls-2" d="M631.42,555.56a1.88,1.88,0,0,1,.73-.84,1.79,1.79,0,0,1,1-.35h2.52a1.79,1.79,0,0,1,1,.35,2.49,2.49,0,0,1,.81.84L652,582.86a2.51,2.51,0,0,1,.14.56c0,.42-.24.63-.7.63h-3.22a1.43,1.43,0,0,1-1.26-.84l-3.29-6.16H630c-.47,0-.7-.21-.7-.63a2,2,0,0,1,.14-.56l1.12-2.17a1.43,1.43,0,0,1,1.26-.84h9.59l-7.07-13.79L622,583.21a1.29,1.29,0,0,1-.53.59,1.33,1.33,0,0,1-.73.25h-3c-.47,0-.7-.21-.7-.63a2,2,0,0,1,.14-.56Z" transform="translate(-119.85 -407.15)"/>
      <path class="cls-2" d="M687.2,554.37a3.6,3.6,0,0,1,3.58,3.57v3.29a1.1,1.1,0,0,1-.36.87,1.25,1.25,0,0,1-.85.32h-2.7a1.06,1.06,0,0,1-1.2-1.19v-2.45H664.81v24.08a1.49,1.49,0,0,1-.25.84.84.84,0,0,1-.73.35h-2.66a1.2,1.2,0,0,1-1.19-1.19v-27.3a1.2,1.2,0,0,1,1.19-1.19Zm2.37,12.74a1.15,1.15,0,0,1,.85.35,1.12,1.12,0,0,1,.36.84v12.18a3.5,3.5,0,0,1-1,2.52,3.4,3.4,0,0,1-2.52,1H669.64a1.2,1.2,0,0,1-1.19-1.19v-2a1.2,1.2,0,0,1,1.19-1.19h16.1v-8.47h-9.38a1.13,1.13,0,0,1-.88-.35,1.23,1.23,0,0,1-.31-.84V568.3a1.2,1.2,0,0,1,.31-.84,1.1,1.1,0,0,1,.88-.35Z" transform="translate(-119.85 -407.15)"/>
      <path class="cls-2" d="M706.67,579.64h21.21a1.2,1.2,0,0,1,1.19,1.19v2a1.2,1.2,0,0,1-1.19,1.19H703.15a1.14,1.14,0,0,1-.83-.35,1.17,1.17,0,0,1-.34-.84v-27.3a1.14,1.14,0,0,1,.34-.84,1.1,1.1,0,0,1,.83-.35H727.6a1.2,1.2,0,0,1,1.19,1.19v2a1.16,1.16,0,0,1-.35.84,1.18,1.18,0,0,1-.84.35H706.67Zm3.71-12a1.2,1.2,0,0,1,1.19-1.19h14.35a1.2,1.2,0,0,1,1.19,1.19v2a1.12,1.12,0,0,1-.35.87,1.24,1.24,0,0,1-.84.32H711.57a1.2,1.2,0,0,1-.84-.32,1.09,1.09,0,0,1-.35-.87Z" transform="translate(-119.85 -407.15)"/>
      <path class="cls-2" d="M738.58,555.56a1.13,1.13,0,0,1,.35-.88,1.24,1.24,0,0,1,.85-.31h1.39a2.76,2.76,0,0,1,1.16.31,4.25,4.25,0,0,1,1.22.88l21.28,21.63V555.56a1.2,1.2,0,0,1,.32-.84,1.1,1.1,0,0,1,.88-.35h2.23a1.2,1.2,0,0,1,1.2,1.19v27.3a1.2,1.2,0,0,1-1.2,1.19H766a1,1,0,0,1-.92-.42l-26.46-26.88Zm0,6.37c0-.24.08-.35.21-.35a1.53,1.53,0,0,1,.63.35L742.5,565a5,5,0,0,1,.5.73,1.59,1.59,0,0,1,.21.67v16.45a1.24,1.24,0,0,1-.32.84,1.13,1.13,0,0,1-.88.35h-2.23a1.2,1.2,0,0,1-1.2-1.19Z" transform="translate(-119.85 -407.15)"/>
      <path class="cls-2" d="M781.21,557.94a3.75,3.75,0,0,1,1-2.38,3.25,3.25,0,0,1,2.66-1.19h22.26a1.1,1.1,0,0,1,.88.35,1.2,1.2,0,0,1,.31.84v2a1.21,1.21,0,0,1-.31.84,1.13,1.13,0,0,1-.88.35H786.25v20.86H808a1.1,1.1,0,0,1,.88.35,1.2,1.2,0,0,1,.31.84v2a1.23,1.23,0,0,1-.31.84,1.13,1.13,0,0,1-.88.35H784.78a3.32,3.32,0,0,1-2.59-1.09,3.6,3.6,0,0,1-1-2.48Z" transform="translate(-119.85 -407.15)"/>
      <path class="cls-2" d="M828.39,565.08a1.17,1.17,0,0,1,.21.49,19.82,19.82,0,0,1-1.82,2.38,1.14,1.14,0,0,1-.7.42,1.16,1.16,0,0,1-.7-.42l-10.22-12.32a2,2,0,0,1-.35-.77c0-.33.19-.49.56-.49H819a1.2,1.2,0,0,1,1,.42ZM833,582.86a1.2,1.2,0,0,1-1.19,1.19h-2.66a1.2,1.2,0,0,1-1.19-1.19V571.31l13.16-16.45a1,1,0,0,1,.91-.49h3.5c.38,0,.56.14.56.42a1.87,1.87,0,0,1-.35.77L833,571.31Z" transform="translate(-119.85 -407.15)"/>
    </g>
  </g>
  <g id="Layer_8" data-name="Layer 8">
    <g id="Layer_10" data-name="Layer 10">
      <rect class="cls-3" x="509.08" y="480.91" width="33.02" height="7.33" transform="translate(-308.83 98.32) rotate(-44.35)"/>
    </g>
    <g id="Layer_12_copy" data-name="Layer 12 copy">
      <path class="cls-3" d="M626.32,490.57l-83.45-83.42h-10.3l-83.4,83.47V500.9l83.47,83.4h10.29l83.39-83.47Zm-30,12.26-20.9,20.61-10.37-.07L565,533.75l-20.89,20.62-20.76-.14L471.79,502l20.85-20.55h0l6.21-6.22,0,12.35,32.55,33,5.19,0,0-5.18-28.36-28.72,20.9-20.61,28.34,28.73,5.2,0,0-5.19-32.57-33-12.29,0,6.21-6.21h0l20.9-20.61,51.54,52.25Z" transform="translate(-119.85 -407.15)"/>
    </g>
  </g>
</svg>
