<svg width="303" height="100" viewBox="0 0 303 100" fill="none" xmlns="http://www.w3.org/2000/svg">
<g clip-path="url(#clip0_986_8116)">
<path d="M52.0391 9.79852C52.3298 13.73 52.8718 17.6412 53.6626 21.511C54.3576 24.8706 55.3347 28.1728 56.5852 31.3863C58.0464 34.9075 59.7513 37.6635 61.7807 39.5773C64.9658 42.7249 69.2141 44.728 73.7956 45.242C76.645 45.5068 79.5206 45.3518 82.3195 44.7828C82.5932 44.7468 82.8643 44.6959 83.1314 44.6297C84.5115 44.4766 87.028 43.558 89.7882 41.6442C91.3762 40.5313 92.8204 39.2468 94.091 37.8166C95.6492 36.0709 96.9592 34.1409 97.9876 32.0751C99.754 28.8711 100.908 25.3987 101.397 21.8172C101.542 20.5152 101.487 19.2004 101.235 17.913C100.667 18.2193 96.9322 21.2813 94.4155 23.3483L94.3344 23.4248V23.2717C93.8671 19.3167 93.0801 15.4012 91.9803 11.5592C91.0319 8.34348 89.8381 5.19664 88.4081 2.14332C88.0834 2.52609 86.6222 4.05712 84.8362 6.43024C82.2847 9.7815 80.1081 13.3731 78.3418 17.1475C78.3418 17.1678 78.3331 17.1873 78.3179 17.2017C78.3026 17.216 78.282 17.2241 78.2604 17.2241C78.1794 17.2241 78.1794 17.1475 78.1794 17.071V16.8413C77.9545 14.859 77.4915 12.9071 76.7993 11.0234C75.3991 7.12195 73.4027 3.43412 70.873 0.076416C70.1424 0.535728 68.0317 2.75574 65.7586 6.04748C63.8103 8.8799 61.4559 13.0903 60.969 17.3006V17.4537L60.8877 17.3772C58.6959 15.2337 52.932 10.564 52.0391 9.79852Z" fill="#EA4C79"/>
<path d="M87.8379 31.7689C92.2217 29.1663 97.1737 22.9655 99.0409 20.4393C96.0372 23.5013 89.8675 29.1663 89.8675 29.1663C91.5257 22.0065 91.3307 14.5756 89.2991 7.50195C89.4615 11.0999 90.111 26.1041 87.8379 31.7689Z" fill="#1A1A1A"/>
<path d="M76.8777 24.7266C76.8777 24.7266 81.2615 12.7079 87.1067 4.823C81.3428 11.4065 78.0955 19.8272 77.7707 20.4396C76.6343 8.42093 70.708 0.842285 70.708 0.842285C70.7022 0.901066 70.6732 0.955657 70.627 0.99539C71.0328 2.06712 74.1988 9.49267 75.1731 13.7796C75.9848 17.6837 76.8777 24.7266 76.8777 24.7266Z" fill="#1A1A1A"/>
<path d="M68.6792 4.13428C65.8864 9.91349 64.6059 16.2404 64.9449 22.5833C64.0517 21.5881 58.6939 15.464 54.0664 12.3254C55.3655 13.8564 60.3988 19.4447 62.3471 21.7413C64.7012 24.5738 66.0813 25.9516 66.0813 25.4157C66.0813 23.0426 65.919 18.6026 66.2437 15.6171C66.6938 11.7291 67.5087 7.88642 68.6792 4.13428Z" fill="#1A1A1A"/>
<path d="M70.1402 39.5005C59.2619 34.6777 54.9592 21.2045 53.498 14.9272C54.2286 18.908 55.8524 25.7977 58.9372 31.0031C63.5647 38.8115 69.9778 41.1081 69.9778 41.1081C69.9778 41.1081 70.3026 41.2612 71.3579 39.9598C72.0532 39.0612 72.626 38.0841 73.0628 37.0508C73.0628 37.0508 70.9521 38.8115 70.1402 39.5005Z" fill="#1A1A1A"/>
<path d="M100.176 20.0566C100.176 20.0566 96.6044 33.4533 88.405 37.2809C86.122 38.3612 83.5196 38.6847 81.0176 38.1995C81.2514 38.299 81.4699 38.4276 81.6671 38.5824H84.1836C84.7086 38.7388 85.2568 38.8164 85.8072 38.8119C86.6948 38.8012 87.5738 38.6459 88.405 38.3526C88.8259 38.2057 89.2332 38.0264 89.6228 37.8166C89.7041 37.8166 89.7851 37.7402 89.8665 37.6635C90.0118 37.6045 90.1485 37.5271 90.2723 37.434C90.3534 37.3574 90.4347 37.3574 90.5157 37.2809L90.5971 37.2043C90.6781 37.1278 90.7594 37.1278 90.8405 37.0512C91.3358 36.7364 91.798 36.3776 92.2206 35.9795C92.383 35.8264 92.5454 35.7497 92.6264 35.5966L92.9512 35.2904C93.1136 35.1374 93.276 34.9078 93.4383 34.7547L93.6818 34.525C95.1669 32.8859 96.397 31.0557 97.335 29.0897C97.335 29.0133 97.4163 29.0133 97.4163 28.9366V28.8602C97.4163 28.8397 97.4247 28.8204 97.4399 28.8059C97.4552 28.7916 97.4758 28.7835 97.4974 28.7835V27.7883C97.4974 27.7681 97.506 27.7485 97.5213 27.7343C97.5365 27.72 97.5571 27.7119 97.5787 27.7119C97.5787 27.6352 97.5787 27.6352 97.6597 27.5588C97.6597 27.5488 97.6618 27.5388 97.6658 27.5295C97.6699 27.5202 97.676 27.5116 97.6836 27.5045C97.691 27.4976 97.7001 27.4919 97.7098 27.4881C97.7197 27.4843 97.7304 27.4821 97.7411 27.4821V26.5635V26.4871C97.7411 26.4104 97.7411 26.4104 97.8221 26.4104V25.2621C97.8221 25.1857 97.9032 25.109 97.9032 25.0326V24.9559V24.2671V24.1904V24.1138V24.0374V23.9607V23.8843V23.8077V23.7311V23.6546V23.578V23.5015V23.4249C97.9032 23.3484 97.9032 23.3484 97.9845 23.2718V23.1953V23.1187V23.0422V22.9656V22.8891V22.8125V22.7359V22.5829V22.5063V22.4298V22.3532V22.2766V22.2001V22.1235V22.047C97.9792 22.0054 97.9837 21.9633 97.9977 21.9236C98.0117 21.8839 98.0351 21.8476 98.0656 21.8173V21.7408V21.6642V21.5877V21.5111V21.4346V21.358C98.0605 21.3164 98.0648 21.2743 98.079 21.2346C98.093 21.1949 98.1161 21.1586 98.1469 21.1284V21.0518V20.9753V20.8987C99.9328 21.4346 100.014 20.7456 100.176 20.0566Z" fill="#1A1A1A"/>
<path d="M78.6648 39.4246C78.6648 39.4044 78.6732 39.3848 78.6885 39.3706C78.7037 39.3563 78.7243 39.3482 78.7459 39.3482C78.7459 39.3279 78.7545 39.3084 78.7698 39.2939C78.785 39.2796 78.8056 39.2715 78.8272 39.2715C78.8272 39.2513 78.8356 39.2318 78.8508 39.2175C78.8661 39.2032 78.8867 39.1951 78.9083 39.1951C78.9083 39.1746 78.9169 39.1553 78.9322 39.1408C78.9474 39.1265 78.968 39.1184 78.9896 39.1184C78.9896 39.0982 78.998 39.0787 79.0132 39.0644C79.0285 39.0501 79.0491 39.042 79.0707 39.042C79.0707 39.0318 79.0727 39.022 79.0768 39.0127C79.0808 39.0034 79.0869 38.9948 79.0945 38.9877C79.1019 38.9808 79.1108 38.9751 79.1207 38.9713C79.1306 38.9675 79.1413 38.9653 79.1517 38.9653C79.1517 38.9451 79.1604 38.9256 79.1756 38.9113C79.1909 38.897 79.2114 38.8889 79.233 38.8889C79.233 38.8684 79.2417 38.8491 79.2567 38.8346C79.2719 38.8203 79.2928 38.8122 79.3141 38.8122C79.3141 38.792 79.3227 38.7725 79.338 38.7582C79.3532 38.7439 79.3738 38.7358 79.3954 38.7358C79.3954 38.7153 79.4041 38.696 79.4191 38.6815C79.4343 38.6672 79.4551 38.6591 79.4765 38.6591V38.5827V38.506V38.4296V38.3529V38.2765V38.1998V38.1232V38.0468V37.9701V37.8937V37.817V37.7406V37.6639C79.4765 37.6437 79.4851 37.6241 79.5004 37.6098C79.5156 37.5956 79.5362 37.5875 79.5578 37.5875C79.4765 37.5108 79.4765 37.5108 79.3954 37.5875C78.4864 38.4737 77.3762 39.1541 76.148 39.5777C75.4175 39.6544 72.5762 37.0515 72.5762 37.0515C73.3355 38.1041 74.1769 39.102 75.0927 40.037C76.5541 41.0322 77.2034 41.1853 78.6648 39.4246Z" fill="#1A1A1A"/>
<path d="M101.234 17.7601C101.153 17.5304 94.3337 23.1953 94.3337 23.1953C93.8979 19.2359 93.1104 15.318 91.9796 11.4828C91.0147 8.24707 89.8213 5.07583 88.4074 1.99035C84.2912 6.57126 80.8754 11.6733 78.26 17.1477C78.1787 17.3773 78.1787 9.79867 70.7912 0C69.33 0.842074 61.6178 9.41591 60.8059 17.3008C58.6139 15.0808 51.957 9.72212 51.957 9.72212C51.957 9.72212 53.0126 31.3098 61.6178 39.7305C70.223 48.1512 81.02 45.0126 83.0496 44.7829C85.6474 44.4002 93.3597 41.2617 97.9869 32.1519C102.777 22.5829 101.315 17.9897 101.234 17.7601ZM96.9315 29.9319C93.6844 36.3621 88.245 40.7257 83.7802 39.3479C82.4021 38.9552 81.1099 38.3331 79.9646 37.5105C79.6327 38.2045 79.1951 38.8493 78.6658 39.4243C77.2044 41.185 76.5551 41.0319 75.4998 39.9602C74.4444 38.8886 72.983 36.9748 72.983 36.9748C72.5464 38.0079 71.9736 38.9852 71.2784 39.8836C70.223 41.185 69.8982 41.0319 69.8982 41.0319C69.8982 41.0319 63.5661 38.7355 58.8576 30.9271C54.149 23.1187 52.9313 11.6359 52.9313 11.6359C57.8022 14.4683 63.972 21.4346 64.9463 22.5829C64.2154 9.33936 70.6288 0.842074 70.6288 0.842074C70.6288 0.842074 76.5551 8.42074 77.6915 20.4394C78.0976 19.827 81.5884 10.4876 87.9205 3.8276C93.2783 16.7649 89.7875 29.2429 89.7875 29.2429C89.7875 29.2429 98.3117 21.358 100.26 19.138C99.6918 22.2001 100.098 23.5015 96.9315 29.9319Z" fill="#006633"/>
<path d="M9.17395 57.5672C19.3216 53.5864 22.5689 54.3519 15.7496 68.8969C12.5024 75.7867 21.1076 77.8536 24.5984 73.5665C25.6231 72.3186 26.3735 70.8905 26.8055 69.3657C27.2378 67.841 27.343 66.25 27.115 64.6865C27.0103 66.8269 26.1537 68.8738 24.6796 70.5045C22.65 72.6479 15.6684 75.8631 20.9452 64.3038C21.6759 62.7726 22.5689 60.8588 23.0559 59.5576C28.008 46.6967 10.1481 55.5769 10.1481 55.5769C10.1481 55.5769 7.71267 58.1795 9.17395 57.5672Z" fill="#1A1A1A"/>
<path d="M0 81.2217C0.764785 79.7791 1.44238 78.2967 2.02953 76.7817C3.73434 72.6479 7.63103 61.2417 8.60521 56.9548C9.74175 52.0555 13.0702 50.9836 13.0702 50.9836C13.0702 50.9836 11.3654 57.9501 11.0406 58.8686C10.7159 59.7872 4.95204 75.1741 1.78599 79.8439C1.39854 80.4353 0.964338 80.9982 0.487088 81.5279C1.18632 80.3977 1.73182 79.1889 2.11071 77.9301L0 81.2217Z" fill="#1A1A1A"/>
<path d="M34.3422 62.0071C34.3422 62.0071 35.8034 57.414 38.8883 55.5768C41.9731 53.7395 43.3532 55.4238 42.785 57.5671C42.2168 59.7107 37.1835 72.0354 41.0801 75.0209C44.9767 78.0066 49.7666 69.5092 49.7666 69.5092C49.7666 69.5092 50.2538 64.763 48.0617 68.2845C47.8994 69.5092 39.7813 76.0161 42.1355 66.8299C44.1651 58.8685 48.6299 52.7442 47.1688 52.0554C45.7076 51.3664 45.0581 52.974 44.0027 51.7492C43.2721 50.9071 40.5119 49.3761 36.4529 53.0504C32.1502 56.9547 30.77 63.8445 30.77 63.8445C30.77 63.8445 29.1465 69.4328 31.3385 73.9492C32.9621 77.2409 38.807 71.8059 39.7813 69.3561C40.8367 66.6002 40.6743 67.1361 40.6743 67.1361C40.6743 67.1361 31.0137 72.2652 34.3422 62.0071Z" fill="#1A1A1A"/>
<path d="M48.0586 68.2081C48.0586 68.2081 50.7378 64.5336 52.8485 55.7303C53.1653 54.1636 53.7696 52.661 54.6344 51.2903C55.2026 50.5246 55.6084 50.5246 55.446 51.5965C54.9592 54.2757 54.7155 56.1129 58.2876 55.6536C61.8595 55.1943 63.0772 52.2088 63.2396 51.9026C64.2136 49.9122 68.1105 50.1419 67.2986 51.5965C66.3243 53.3572 56.9885 66.1412 57.3946 69.9688C57.8004 73.7965 61.8595 71.6531 64.2949 68.591C67.3415 63.9831 69.7943 59.0488 71.6013 53.8929C72.413 52.4384 72.0882 56.4191 69.7341 61.6248C69.2469 62.6965 66.9738 69.9688 63.402 73.72C61.1289 76.0931 54.8778 76.5524 54.3096 72.9543C53.579 68.3612 58.531 62.2372 60.4794 59.0219C61.2099 57.7972 61.7784 57.0317 61.7784 57.0317C61.7784 57.0317 59.3429 59.9405 55.8521 59.0219C55.5185 58.9557 55.2054 58.8176 54.9378 58.6186C54.6702 58.4193 54.4552 58.1643 54.3096 57.8736C54.3096 57.8736 52.9295 64.9165 49.4387 69.9688C48.6271 71.1938 48.0586 68.2081 48.0586 68.2081Z" fill="#1A1A1A"/>
<path d="M76.3116 68.2078C76.1492 69.4328 68.0312 75.9397 70.3856 66.7532C72.4149 58.792 77.773 55.0409 76.0681 51.9023C75.4186 50.7539 72.3339 49.9118 71.9278 51.443C71.6844 52.2085 71.7654 55.4237 71.1972 57.567C70.629 59.7106 64.1345 71.8823 68.0312 74.7913C71.9278 77.7004 75.9871 70.8873 78.3412 68.8204C79.9648 67.2892 78.5036 64.6863 76.3116 68.2078Z" fill="#1A1A1A"/>
<path d="M80.4511 58.4854C79.6082 62.354 77.9518 66.0242 75.5801 69.2795C72.0083 73.8726 73.6318 73.1068 73.6318 73.1068L76.3107 72.0352C76.3107 72.0352 77.6098 71.0399 79.8829 64.8392C82.1559 58.6385 81.9122 58.0261 81.9122 58.0261L80.4511 58.4854Z" fill="#1A1A1A"/>
<path d="M129.161 62.3898C125.345 68.8967 122.829 69.6622 122.829 69.6622C123.988 68.4936 125.047 67.2394 125.995 65.9113C126.702 65.0158 127.225 64.0032 127.537 62.9258C124.858 67.3658 120.149 72.4182 110.733 73.3367C105.943 73.4898 102.289 72.4946 100.666 70.5808L104.238 68.2844C106.901 66.1534 109.322 63.7674 111.463 61.1651C114.304 57.3374 115.278 54.3517 113.817 51.3663C112.924 49.4524 108.378 47.0793 102.289 52.1317C95.8763 57.4139 94.1714 66.8298 98.7176 72.3415C99.8423 73.6608 101.263 74.7294 102.877 75.4705C104.491 76.2115 106.259 76.607 108.053 76.6284H108.703C110.199 76.7146 111.701 76.6115 113.168 76.3222C113.415 76.2875 113.659 76.2363 113.899 76.1691C120.231 74.8679 126.238 70.5044 129.161 62.3898ZM101.396 58.0263C104.238 53.816 107.566 53.2801 108.54 56.036C109.596 59.2513 101.965 68.1313 100.179 69.1265C98.3928 70.1215 98.5552 62.2367 101.396 58.0263Z" fill="#1A1A1A"/>
<path d="M102.207 45.931C102.207 45.931 101.152 47.0027 100.177 47.8449C98.8787 49.0696 95.3879 47.4622 96.8491 44.8594C98.3105 42.2565 104.724 38.8882 109.676 38.4289C114.628 37.9696 115.927 38.3525 115.927 38.3525C115.927 38.3525 111.056 38.3525 108.702 39.3477C106.347 40.3427 112.761 38.8118 116.576 39.1179C120.392 39.4241 120.96 39.7303 120.96 39.7303C120.96 39.7303 110 39.1179 102.207 45.931Z" fill="#1A1A1A"/>
<path d="M8.60352 57.5671C8.60352 57.5671 14.4486 53.8162 19.2383 51.2133V50.2947C16.9652 51.4431 12.419 53.5864 12.419 53.5864C12.419 53.5864 16.4781 42.9457 15.8286 33.989C15.5039 29.0898 13.8803 27.865 12.5002 27.865C9.9836 27.865 8.52235 29.7021 9.74006 34.0657C11.3141 40.3012 11.3696 46.7919 9.90241 53.0505C9.49651 54.9643 8.60352 57.5671 8.60352 57.5671Z" fill="#1A1A1A"/>
<path d="M82.8863 22.8892C82.8049 22.8126 82.6428 22.8126 82.5615 22.7361C82.4804 22.6595 82.2367 22.6595 82.0743 22.583C81.7023 22.4946 81.3214 22.4432 80.9379 22.4299H80.6132C80.4467 22.4178 80.2795 22.4441 80.126 22.5064C79.8168 22.6663 79.4902 22.7946 79.152 22.8892C79.0707 22.8892 78.9896 22.9657 79.0707 22.9657C79.152 22.9657 79.0707 23.0423 79.152 23.1188C79.2331 23.1954 79.3954 23.1954 79.4765 23.2719C79.5578 23.3485 79.8013 23.3485 79.9637 23.425C80.3359 23.5135 80.7169 23.5648 81.1003 23.5781H81.4251C81.5915 23.5902 81.7587 23.564 81.912 23.5016C82.2502 23.407 82.5767 23.2787 82.8863 23.1188C82.9673 23.1188 83.0486 23.0423 82.9673 23.0423C82.8863 23.0423 82.9673 22.8892 82.8863 22.8892Z" fill="#1A1A1A"/>
<path d="M88.1639 13.6261C88.1639 13.5496 88.0826 13.473 88.0826 13.3965C88.0826 13.3199 88.0015 13.2434 87.9202 13.1668C87.7736 12.952 87.5799 12.7693 87.352 12.6309L87.1896 12.4778C87.1085 12.4013 87.0272 12.4013 86.8648 12.3247C86.7024 12.2482 86.3779 12.2482 86.1342 12.1716H86.0532C85.9719 12.1716 85.9719 12.2482 86.0532 12.2482C86.1342 12.2482 86.1342 12.4013 86.1342 12.4778C86.1342 12.5544 86.2156 12.6309 86.2966 12.7075C86.4435 12.9223 86.6371 13.105 86.8648 13.2434L87.0272 13.3965C87.1085 13.473 87.1896 13.473 87.352 13.5496C87.5144 13.6261 87.8391 13.6261 88.0826 13.7027H88.1639C88.2449 13.7027 88.2449 13.6261 88.1639 13.6261Z" fill="#1A1A1A"/>
<path d="M87.1072 29.4723C87.1072 29.3957 87.0259 29.3192 87.0259 29.2426C87.0259 29.1662 86.9449 29.0895 86.8638 29.0131C86.7169 28.7981 86.5233 28.6154 86.2953 28.4771L86.133 28.324C86.0519 28.2473 85.9706 28.2473 85.8084 28.1709C85.5576 28.1566 85.3111 28.105 85.0776 28.0178H84.9965C84.9152 28.0178 84.9152 28.0943 84.9965 28.0943C85.0776 28.0943 85.0776 28.2473 85.0776 28.324C85.0776 28.4004 85.1589 28.4771 85.24 28.5535C85.3869 28.7685 85.5805 28.9512 85.8084 29.0895L85.9706 29.2426C86.0519 29.3192 86.133 29.3193 86.2953 29.3957C86.4577 29.4723 86.7825 29.4723 87.0259 29.5488H87.1072V29.4723Z" fill="#1A1A1A"/>
<path d="M70.5467 7.11976L70.3846 7.27286C70.3033 7.3494 70.3033 7.42597 70.2222 7.57907L69.9785 8.26805V8.8039L70.2222 9.49288C70.2222 9.56943 70.2222 9.56943 70.3033 9.56943C70.3846 9.56943 70.3846 9.56943 70.3846 9.49288L70.5467 9.33976C70.628 9.26321 70.628 9.18667 70.7091 9.03357L70.9528 8.34459V7.80874L70.7091 7.11976C70.7091 7.04321 70.7091 7.04321 70.628 7.04321C70.5467 7.04321 70.628 7.11976 70.5467 7.11976Z" fill="#1A1A1A"/>
<path d="M72.4146 12.9371C72.3839 12.9674 72.3607 13.0037 72.3468 13.0434C72.3325 13.0831 72.3282 13.1252 72.3335 13.1668C72.2522 13.2434 72.2522 13.3199 72.2522 13.473C72.1521 13.7176 72.0972 13.9765 72.0898 14.2385V14.7744C72.1712 15.004 72.3335 15.2337 72.4146 15.4634C72.4146 15.4837 72.4232 15.5031 72.4385 15.5175C72.4535 15.5319 72.4743 15.5399 72.4957 15.5399C72.577 15.5399 72.577 15.5399 72.577 15.4634C72.6077 15.4331 72.6309 15.3968 72.6448 15.3571C72.6588 15.3174 72.6634 15.2753 72.6581 15.2337C72.7394 15.1572 72.7394 15.0806 72.7394 14.9275C72.8395 14.6829 72.8944 14.424 72.9017 14.162V13.6261C72.8281 13.3834 72.7185 13.1515 72.577 12.9371C72.577 12.9168 72.5683 12.8974 72.5531 12.883C72.5379 12.8687 72.5173 12.8606 72.4957 12.8606L72.4146 12.9371Z" fill="#1A1A1A"/>
<path d="M68.4364 14.6981C68.4311 14.7397 68.4357 14.7818 68.4499 14.8216C68.4639 14.8613 68.487 14.8976 68.5177 14.9278C68.5177 15.0043 68.5988 15.0809 68.6801 15.234C68.7612 15.3871 69.0049 15.6168 69.167 15.8464L69.3294 15.9995C69.368 16.0462 69.4173 16.0842 69.4735 16.1107C69.5296 16.1372 69.5914 16.1515 69.6542 16.1526C69.9085 16.1943 70.1548 16.2717 70.3847 16.3823H70.4661C70.5471 16.3823 70.5471 16.3057 70.4661 16.3057C70.4714 16.2642 70.4668 16.222 70.4528 16.1823C70.4389 16.1426 70.4155 16.1063 70.3847 16.0761C70.3847 15.9995 70.3037 15.923 70.2226 15.7699C70.1413 15.6168 69.8978 15.3871 69.7355 15.1574L69.5731 15.0043C69.5345 14.9577 69.4852 14.9197 69.429 14.8932C69.3728 14.8667 69.3111 14.8524 69.2483 14.8512L68.5177 14.6216H68.4364C68.4364 14.6216 68.3554 14.6981 68.4364 14.6981Z" fill="#1A1A1A"/>
<path d="M69.7356 18.7558C69.7676 18.7847 69.8063 18.8066 69.8482 18.8199C69.8904 18.8331 69.9351 18.8374 69.9791 18.8324C70.0744 18.8933 70.1895 18.9204 70.3038 18.9089C70.5681 18.9762 70.8426 19.002 71.1157 18.9855H71.3592C71.4735 18.9969 71.5886 18.9698 71.6839 18.9089C71.9083 18.8224 72.1253 18.72 72.3335 18.6027C72.3548 18.6027 72.3756 18.5946 72.3909 18.5803C72.4059 18.5659 72.4145 18.5464 72.4145 18.5262C72.4145 18.4496 72.4145 18.4496 72.3335 18.4496C72.3012 18.4207 72.2628 18.3988 72.2206 18.3855C72.1787 18.3723 72.134 18.368 72.0898 18.373C71.9945 18.3122 71.8796 18.285 71.765 18.2965C71.5007 18.2292 71.2265 18.2034 70.9533 18.2199H70.7096C70.5953 18.2085 70.4802 18.2356 70.3851 18.2965C70.1414 18.373 69.9791 18.5261 69.7356 18.6027C69.714 18.6027 69.6934 18.6108 69.6782 18.6251C69.6629 18.6395 69.6543 18.6589 69.6543 18.6793C69.6543 18.7558 69.6543 18.7558 69.7356 18.7558Z" fill="#1A1A1A"/>
<path d="M69.0042 21.4347C68.9988 21.4762 69.0031 21.5184 69.0174 21.5581C69.0313 21.5978 69.0545 21.6341 69.0852 21.6643C69.0852 21.7409 69.1663 21.8175 69.2476 21.9706C69.3287 22.1237 69.5724 22.3533 69.7347 22.583L69.8971 22.7361C69.9358 22.7828 69.9848 22.8208 70.041 22.8472C70.0971 22.8737 70.1589 22.8881 70.2216 22.8892C70.476 22.9309 70.7225 23.0083 70.9525 23.1188H71.0335C71.1149 23.1188 71.1149 23.0423 71.0335 23.0423C71.0389 23.0007 71.0343 22.9586 71.0203 22.9189C71.0064 22.8792 70.983 22.8429 70.9525 22.8126C70.9525 22.7361 70.8712 22.6595 70.7901 22.5064C70.7088 22.3533 70.4653 22.1237 70.303 21.894L70.1406 21.7409C70.102 21.6942 70.0527 21.6562 69.9965 21.6297C69.9403 21.6033 69.8786 21.5889 69.8158 21.5878L69.0852 21.3582H69.0042V21.4347Z" fill="#1A1A1A"/>
<path d="M73.7129 31.9988V32.2283C73.7129 32.305 73.794 32.3814 73.794 32.4581C73.9012 32.654 74.0379 32.8345 74.1998 32.9938C74.2811 32.9938 74.2811 33.0705 74.3622 33.1469C74.4435 33.2235 74.5245 33.2235 74.6869 33.3002C74.9649 33.3071 75.2394 33.3588 75.4988 33.4533H75.6612C75.6826 33.4533 75.7034 33.4452 75.7186 33.4307C75.7339 33.4164 75.7423 33.3969 75.7423 33.3766V33.1469C75.7423 33.0705 75.6612 32.9938 75.6612 32.9174C75.5537 32.7212 75.4173 32.5407 75.2551 32.3814C75.1741 32.3814 75.1741 32.305 75.0928 32.2283C75.0117 32.1519 74.9306 32.1519 74.7682 32.0752C74.6059 31.9988 74.1998 31.9988 73.9563 31.9221H73.794C73.7129 31.9221 73.7129 31.9221 73.7129 31.9988Z" fill="#1A1A1A"/>
<path d="M58.2054 21.5114V21.741C58.2054 21.8176 58.2868 21.8941 58.2868 21.9707C58.394 22.1668 58.5307 22.3472 58.6926 22.5066L58.855 22.6596C58.936 22.7362 59.0174 22.7362 59.1797 22.8128C59.5042 22.8893 59.7479 22.8893 59.9914 22.9659H60.1538C60.1754 22.9659 60.1959 22.9578 60.2112 22.9434C60.2264 22.9291 60.2351 22.9096 60.2351 22.8893V22.6596C60.2351 22.5831 60.1538 22.5066 60.1538 22.43C60.0465 22.2339 59.9098 22.0534 59.7479 21.8941L59.5856 21.741C59.5042 21.6645 59.4232 21.6645 59.2608 21.5879C59.0984 21.5114 58.6926 21.5114 58.4489 21.4348H58.2868C58.2054 21.4348 58.1244 21.4348 58.2054 21.5114Z" fill="#1A1A1A"/>
<path d="M81.911 35.8264V35.9029C81.911 35.9795 81.911 35.9795 81.9923 36.0559C82.0734 36.1326 82.1547 36.2857 82.2358 36.3621L82.3171 36.4388C82.3608 36.4802 82.4177 36.5071 82.4795 36.5152C82.6419 36.5152 82.7229 36.5919 82.8853 36.6683H82.9664V36.5152C82.9664 36.4388 82.9664 36.4388 82.8853 36.3621C82.804 36.2857 82.7229 36.1326 82.6419 36.0559L82.5606 35.9795C82.5168 35.9378 82.4597 35.9109 82.3982 35.9029C82.3171 35.8264 82.1547 35.8264 81.9923 35.7498C81.9707 35.7498 81.9502 35.7578 81.9349 35.7721C81.9197 35.7867 81.911 35.8059 81.911 35.8264C81.83 35.7498 81.911 35.7498 81.911 35.8264Z" fill="#1A1A1A"/>
<path d="M77.7727 29.8556C77.8167 29.8606 77.8614 29.8563 77.9036 29.8432C77.9458 29.8299 77.9841 29.808 78.0162 29.7791C78.0975 29.7791 78.1786 29.7025 78.2599 29.626C78.4418 29.4927 78.6055 29.3384 78.7468 29.1665C78.7468 29.0901 78.8281 29.0901 78.8281 29.0134C78.8281 28.937 78.9091 28.8603 78.9091 28.7072C78.8959 28.4244 78.9231 28.1413 78.9905 27.8653V27.7122C78.9905 27.6918 78.9818 27.6725 78.9666 27.658C78.9513 27.6437 78.9307 27.6356 78.9091 27.6356C78.8652 27.6306 78.8205 27.6349 78.7783 27.6482C78.7363 27.6613 78.6977 27.6832 78.6657 27.7122C78.5844 27.7122 78.5033 27.7887 78.422 27.8653C78.24 27.9984 78.0764 28.1527 77.9351 28.3246C77.9351 28.401 77.8538 28.401 77.8538 28.4777C77.8538 28.5541 77.7727 28.6308 77.7727 28.7839C77.7727 28.937 77.6914 29.3196 77.6914 29.626V29.7791C77.6914 29.7994 77.7 29.8189 77.7153 29.8332C77.7305 29.8475 77.7511 29.8556 77.7727 29.8556Z" fill="#1A1A1A"/>
<path d="M88.0816 10.3342V10.1046C88.0816 10.028 88.0005 9.87492 88.0005 9.79838C87.8968 9.55338 87.7604 9.32185 87.5947 9.1094L87.4323 8.9563L87.1886 8.72666C86.9645 8.64011 86.7472 8.53776 86.5393 8.42045C86.458 8.3439 86.458 8.3439 86.458 8.42045C86.4364 8.42045 86.4158 8.42852 86.4006 8.44285C86.3853 8.45721 86.377 8.47669 86.377 8.497V8.72666C86.377 8.80321 86.458 8.9563 86.458 9.03285C86.5617 9.27785 86.6982 9.5094 86.8641 9.72183L87.0262 9.87492L87.2699 10.1046C87.4689 10.2367 87.688 10.3399 87.9195 10.4108C88.0005 10.4874 88.0005 10.4874 88.0005 10.4108C88.0005 10.3342 88.1629 10.4108 88.0816 10.3342Z" fill="#1A1A1A"/>
<path d="M86.62 19.6735H86.3766C86.262 19.662 86.1471 19.6891 86.0518 19.75C85.8084 19.8266 85.4836 19.9031 85.2399 19.9797C85.1589 19.9797 85.0775 20.0562 84.9965 20.0562C84.9152 20.0562 84.7528 20.1328 84.6717 20.2093L84.1846 20.6687L84.1035 20.7452C84.1035 20.7655 84.1119 20.785 84.1271 20.7993C84.1424 20.8137 84.163 20.8218 84.1846 20.8218H84.4283C84.5426 20.8332 84.6577 20.8061 84.7528 20.7452C84.9965 20.6687 85.3212 20.5921 85.5647 20.5155C85.646 20.5155 85.7271 20.439 85.8084 20.439C85.8895 20.439 86.0518 20.3624 86.1329 20.2859L86.62 19.8266L86.7014 19.75C86.7014 19.6735 86.7014 19.6735 86.62 19.6735Z" fill="#1A1A1A"/>
<path d="M84.3473 17.9901C84.2662 17.9901 84.1038 17.9136 84.0225 17.9136H83.5356C83.1522 17.9269 82.7712 17.9783 82.3989 18.0667C82.3179 18.0667 82.1555 18.1432 82.0742 18.1432C81.9931 18.1432 81.7494 18.2198 81.6684 18.3729C81.4351 18.6176 81.1609 18.8245 80.8565 18.9853C80.7754 19.0619 80.7754 19.0619 80.7754 19.1384C80.7754 19.215 80.8565 19.215 80.9378 19.215C81.0188 19.215 81.1812 19.2915 81.2625 19.2915H81.7494C82.1331 19.2781 82.5141 19.2268 82.8861 19.1384C82.9672 19.1384 83.1295 19.0619 83.2109 19.0619C83.2919 19.0619 83.5356 18.9853 83.6167 18.8322C83.9066 18.6519 84.1783 18.4469 84.4286 18.2198C84.5097 18.1432 84.5096 18.1432 84.5096 18.0667C84.4659 18.0251 84.4088 17.9982 84.3473 17.9901Z" fill="#1A1A1A"/>
<path d="M84.591 15.3869C84.5468 15.3919 84.5021 15.3876 84.4601 15.3744C84.4179 15.3611 84.3793 15.3392 84.3473 15.3103H84.0225C83.7466 15.3315 83.4742 15.3829 83.2109 15.4634C83.1296 15.4634 83.0485 15.5399 82.9672 15.5399C82.8861 15.5399 82.8048 15.6165 82.6427 15.6931L82.1555 16.1524L82.0742 16.2289C82.0742 16.3055 82.0742 16.3055 82.1555 16.3055C82.1995 16.3005 82.2442 16.3048 82.2864 16.318C82.3286 16.3312 82.367 16.3531 82.399 16.382H82.7237C82.9997 16.3608 83.2721 16.3095 83.5356 16.2289C83.6167 16.2289 83.698 16.1524 83.7791 16.1524C83.8602 16.1524 83.9415 16.0758 84.1039 15.9993L84.591 15.5399L84.6721 15.4634C84.6721 15.4534 84.67 15.4434 84.666 15.4341C84.6619 15.4248 84.6558 15.4164 84.6484 15.4093C84.6408 15.4022 84.6319 15.3965 84.622 15.3927C84.6121 15.3888 84.6017 15.3869 84.591 15.3869Z" fill="#1A1A1A"/>
<path d="M48.0593 32.8408C47.2476 26.9465 41.24 24.9561 35.0703 27.5589C29.8746 29.7023 27.1146 35.6735 25.2474 41.2618C22.6496 49.0699 15.4245 52.132 12.502 53.6632C14.689 53.0873 16.8318 52.3713 18.9153 51.5196C22.0813 49.9887 26.7086 46.008 30.3617 39.2713C33.2844 33.9127 38.074 32.4582 39.6165 32.6877C43.1073 33.1473 43.1073 36.2858 39.5354 38.6589C37.9116 39.5775 48.8712 38.1996 48.0593 32.8408Z" fill="#1A1A1A"/>
<path d="M98.3104 70.4278C95.2254 73.643 87.5945 74.2554 90.7606 62.4664C91.7959 58.9476 93.2672 55.5559 95.1444 52.3616C96.7679 49.4526 90.923 50.8304 87.6756 53.3569C85.3215 55.194 83.2918 58.5623 82.6423 58.3326C81.993 58.103 85.8083 50.6009 80.7753 50.9838C80.7753 50.9838 81.5059 52.5147 80.694 56.9547C79.8823 61.3947 76.7163 68.7438 75.4985 71.7292C74.2808 74.7147 74.6053 75.7866 76.2291 75.7866C77.8527 75.7866 80.1258 74.7914 81.4246 68.5907C82.7236 62.39 81.9117 63.3852 82.8047 61.3183C83.6976 59.2514 89.7052 54.505 88.9744 57.8733C88.4875 60.0169 87.919 62.8492 86.7016 68.0547C85.8083 71.959 87.919 77.1645 93.1961 75.71C95.956 74.9445 99.041 72.4183 101.964 68.1314C100.666 68.7773 99.4418 69.5469 98.3104 70.4278Z" fill="#1A1A1A"/>
<path d="M1.86719 49.5298C1.86719 49.5298 6.5757 55.96 12.5019 53.6636C14.8562 52.745 10.3912 55.96 10.3912 55.96C10.3912 55.96 5.11443 55.2712 1.86719 49.5298Z" fill="#1A1A1A"/>
<path d="M6.16992 59.0215C7.69801 58.0403 9.3651 57.2672 11.122 56.7248C13.6386 56.036 11.9338 54.8877 11.9338 54.8877L10.6349 55.1939C10.5537 55.1939 6.73818 56.3422 6.16992 59.0215Z" fill="#1A1A1A"/>
<path d="M3.73438 52.8975C4.40207 53.7365 5.24218 54.4401 6.2046 54.9663C7.167 55.4925 8.23195 55.8303 9.33589 55.9596C10.8783 56.1894 8.76761 55.1177 8.76761 55.1177C8.76761 55.1177 5.27682 54.1225 3.73438 52.8975Z" fill="#1A1A1A"/>
<path d="M121.852 86.5808C121.852 86.5808 138.494 64.4573 142.228 40.573C145.394 20.4398 143.365 14.4687 143.365 14.4687C143.365 14.4687 143.527 9.72244 146.937 9.79901C150.346 9.87556 151.726 14.0094 151.483 17.3011C151.158 24.497 148.885 39.8839 143.852 53.6634C137.682 70.4282 125.18 84.3608 125.18 84.3608C125.18 84.3608 130.051 76.9351 130.863 75.4042C131.674 73.8732 123.881 84.8201 121.852 86.5808Z" fill="#1A1A1A"/>
<path d="M137.52 38.0465C137.52 38.0465 143.122 25.0327 153.107 20.4394C163.092 15.8463 168.775 18.2194 169.344 26.9465C169.831 33.9891 162.93 44.0174 154.569 47.845C147.181 51.2134 131.513 55.73 130.214 55.9596C128.915 56.1893 131.026 56.3424 134.111 55.9596C137.196 55.5769 137.033 55.6534 135.166 56.1893C133.299 56.725 134.111 57.1843 135.978 56.9548C137.845 56.725 151.565 53.3569 158.628 49.7589C165.69 46.161 173.24 38.8119 175.595 31.1567C177.949 23.5015 175.595 17.5305 171.86 14.5449C168.126 11.5594 162.118 10.7173 156.517 12.5546C150.915 14.3918 140.281 23.6546 136.384 30.6208C132.487 37.5872 132.325 42.5629 132.65 43.1755C132.974 43.7879 135.247 42.4098 137.52 38.0465Z" fill="#1A1A1A"/>
<path d="M152.132 62.543C152.132 62.543 153.431 57.6437 158.14 55.883C161.549 54.5816 162.605 55.7299 162.036 57.8733C161.468 60.0168 156.435 72.3416 160.332 75.3273C164.228 78.3128 169.018 69.8154 169.018 69.8154C169.018 69.8154 169.505 65.0692 167.313 68.5906C167.151 69.8154 159.033 76.3223 161.387 67.1361C163.416 59.1747 167.881 53.0506 166.42 52.3616C164.959 51.6725 164.309 53.2802 163.254 52.0554C162.199 50.8306 150.915 55.194 147.83 63.4616C144.907 71.1168 148.641 74.7147 150.509 75.7099C153.837 77.5473 158.14 72.4183 159.033 69.9685C160.088 67.2128 159.439 67.1361 159.439 67.1361C159.439 67.1361 148.722 75.7866 152.132 62.543Z" fill="#1A1A1A"/>
<path d="M247.766 61.1652C247.766 61.1652 250.039 56.9547 253.692 55.1175C257.346 53.2802 258.888 54.9642 258.238 57.1078C257.59 59.2513 251.663 71.5761 256.291 74.5616C260.916 77.5473 266.438 69.0499 266.438 69.0499C266.438 69.0499 267.005 64.3037 264.408 67.8252C264.164 69.0499 254.749 75.5568 257.427 66.3706C259.78 58.4092 264.977 52.2849 263.272 51.5961C261.567 50.9071 260.756 52.5147 259.618 51.2899C258.726 50.3711 255.315 48.8402 249.958 53.2802C242.651 59.3278 242.651 69.1264 244.843 73.4899C246.629 76.8583 251.338 74.1023 253.042 71.8823C254.233 70.203 255.01 68.2935 255.315 66.294C255.315 66.294 243.544 73.1071 247.766 61.1652Z" fill="#1A1A1A"/>
<path d="M167.312 68.5909C167.312 68.5909 169.991 64.9164 172.102 56.1128C172.419 54.5462 173.023 53.0435 173.888 51.6728C174.456 50.9073 174.862 50.9073 174.7 51.979C174.213 54.6583 173.969 56.4957 177.541 56.0364C181.113 55.5771 182.331 52.5914 182.493 52.2852C183.468 50.295 189.475 50.3714 188.663 51.8259C187.689 53.5866 176.242 66.524 176.648 70.3516C176.811 72.1888 177.785 72.9543 179.084 72.7247C180.383 72.495 182.98 71.5 184.847 66.2178C185.253 65.6819 185.822 70.5047 182.574 74.1792C180.383 76.6288 174.05 77.0116 173.482 73.4138C172.752 68.8204 177.704 62.6964 179.652 59.4812C180.383 58.2564 180.951 57.4909 180.951 57.4909C180.951 57.4909 178.515 60.3997 175.024 59.4812C174.691 59.415 174.378 59.2769 174.11 59.0778C173.843 58.8785 173.628 58.6235 173.482 58.3328C173.482 58.3328 172.102 65.3757 168.611 70.4281C167.881 71.5764 167.312 68.5909 167.312 68.5909Z" fill="#1A1A1A"/>
<path d="M210.016 93.7765C213.345 93.6998 224.71 92.6282 232.26 78.8486C240.053 64.7632 239.323 61.0886 239.81 57.797C239.984 56.9091 239.876 55.9927 239.501 55.1622C239.125 54.3317 238.499 53.6239 237.699 53.1272C237.699 53.1272 241.839 50.0651 244.437 50.4479C247.035 50.8308 242.489 61.0122 241.677 63.9977C240.865 66.9832 234.533 80.6093 231.692 85.4322C228.85 90.2551 223.655 96.9151 213.507 99.2882C205.876 101.125 199.057 99.2882 195.81 95.0013C191.913 89.8722 196.297 84.5136 200.275 84.2839C200.194 89.1067 202.629 93.9296 210.016 93.7765Z" fill="#1A1A1A"/>
<path d="M226.091 65.375C224.63 69.1262 226.822 75.2502 231.692 69.7386C236.32 64.6095 239.811 60.6288 239.729 56.7248C239.648 52.8205 242.246 55.4998 242.165 55.8059C242.084 56.1121 238.755 64.4564 238.755 64.4564C238.755 64.4564 234.371 72.9538 231.286 75.1738C228.202 77.3938 224.224 76.1688 224.061 69.1262C223.899 62.0833 226.091 65.375 226.091 65.375Z" fill="#1A1A1A"/>
<path d="M302.4 64.7632C301.749 67.4425 295.823 73.1839 291.114 71.1935C284.296 68.2847 286.731 60.6294 289.493 57.797C292.657 54.5818 296.067 54.8113 296.23 57.0313C296.11 57.4956 295.859 57.9199 295.501 58.2575C295.142 58.5951 294.692 58.8332 294.199 58.9451C292.657 59.1749 297.366 62.3901 300.369 59.8639C302.806 57.797 302.562 55.4237 301.589 53.2804C300.776 51.5961 297.284 48.9168 291.277 52.7444C284.947 56.7251 282.754 64.6866 285.676 70.3516C288.029 74.868 294.118 76.6287 298.504 73.0308C300.695 71.4232 301.831 69.1266 302.4 64.7632Z" fill="#1A1A1A"/>
<path d="M285.269 64.84C285.107 66.2945 284.703 68.2083 283.971 68.8974C280.886 72.1126 275.366 73.3374 278.533 61.625C279.567 58.1059 281.038 54.7143 282.916 51.52C284.54 48.611 278.695 49.989 275.448 52.5152C273.092 54.3524 271.064 57.7207 270.414 57.4912C269.766 57.2614 273.499 49.7593 268.546 50.1421C268.546 50.1421 269.278 51.6731 268.464 56.1131C267.654 60.5531 264.487 67.9021 263.27 70.8876C262.053 73.8733 262.376 74.945 264 74.945C265.623 74.945 267.898 73.9498 269.196 67.749C270.495 61.5483 269.684 62.5436 270.576 60.4767C271.468 58.4098 277.475 53.6636 276.746 57.0319C276.258 59.1752 275.692 62.0076 274.472 67.2133C273.58 71.1174 275.692 76.3228 280.967 74.8683C283.727 74.1028 286.408 70.8876 286.408 65.3759L285.269 64.84Z" fill="#1A1A1A"/>
<path d="M221.379 68.9729C221.102 69.2724 220.804 69.5539 220.486 69.815C217.401 72.3412 213.099 72.3412 215.94 61.7005C216.975 58.1815 218.447 54.7898 220.324 51.5958C221.948 48.6867 216.103 50.0646 212.855 52.5908C210.501 54.4281 208.471 57.7965 207.822 57.5667C207.173 57.337 210.988 49.835 205.955 50.2177C205.955 50.2177 206.685 51.7489 205.874 56.1889C205.062 60.6289 201.896 67.9779 200.678 70.9634C199.46 73.9489 199.785 75.0205 201.409 75.0205C203.032 75.0205 205.305 74.0255 206.604 67.8246C207.903 61.6239 207.091 62.6191 207.984 60.5522C208.878 58.4853 214.885 53.7391 214.154 57.1074C213.667 59.2508 213.099 62.0834 211.881 67.2889C210.988 71.1929 213.099 76.3986 218.376 74.9441C219.734 74.5246 220.906 73.6893 221.704 72.571C222.922 70.8867 222.11 68.2074 221.379 68.9729Z" fill="#1A1A1A"/>
<path d="M220.488 69.8155L221.625 72.5715C224.628 68.7438 228.525 61.5479 230.23 52.7443C230.23 52.7443 230.23 51.3665 229.093 51.3665C227.957 51.3665 224.547 53.1272 224.547 53.1272C226.415 58.2562 225.116 65.9115 220.488 69.8155Z" fill="#1A1A1A"/>
<path d="M199.545 51.5194C196.216 49.7587 192.239 51.5961 189.966 56.9546C189.249 58.5984 188.652 60.2865 188.179 62.007V62.0837C187.758 63.4656 187.433 64.872 187.205 66.2939C187.16 66.5215 187.133 66.7518 187.124 66.983V66.9063C186.907 68.0713 186.907 69.263 187.124 70.4277C187.449 72.7244 188.017 73.1837 188.017 73.1837C189.316 75.863 192.563 77.4706 196.622 72.9539C202.143 66.7532 205.39 54.658 199.545 51.5194ZM198.896 63.4615C197.515 67.1361 193.943 71.0401 190.859 70.6575C187.774 70.2746 188.91 63.0023 190.128 60.7056C191.427 58.7154 193.05 56.9546 194.836 56.7249C198.814 56.3423 200.357 59.8637 198.896 63.4615Z" fill="#1A1A1A"/>
</g>
<defs>
<clipPath id="clip0_986_8116">
<rect width="302.4" height="100" fill="white"/>
</clipPath>
</defs>
</svg>
