<svg width="1016" height="721" xmlns="http://www.w3.org/2000/svg" xmlns:xlink="http://www.w3.org/1999/xlink" xml:space="preserve" overflow="hidden"><defs><clipPath id="clip0"><rect x="2220" y="-420" width="1016" height="721"/></clipPath><clipPath id="clip1"><rect x="2221" y="-419" width="1014" height="720"/></clipPath><clipPath id="clip2"><rect x="2221" y="-419" width="1014" height="720"/></clipPath><clipPath id="clip3"><rect x="2221" y="-419" width="1014" height="720"/></clipPath><clipPath id="clip4"><rect x="2221" y="-419" width="1014" height="720"/></clipPath></defs><g clip-path="url(#clip0)" transform="translate(-2220 420)"><g clip-path="url(#clip1)"><g clip-path="url(#clip2)"><g clip-path="url(#clip3)"><g clip-path="url(#clip4)"><path d="M-555.78 193.74C-555.732 202.336-555.684 197.848-555.636 206.444L-555.636 236.362C-555.636 277.332-588.849 310.545-629.82 310.545L-926.545 310.545C-967.513 310.545-1000.73 277.332-1000.73 236.362L-1000.73-60.3621C-1000.73-101.332-967.513-134.545-926.545-134.545L-629.82-134.545C-588.849-134.545-555.636-101.332-555.636-60.3621-555.636-38.5416-555.709 17.3847-555.709 17.3847" stroke="#FFFFFF" stroke-width="18.9091" stroke-linecap="butt" stroke-linejoin="miter" stroke-miterlimit="8" stroke-opacity="1" fill="none" fill-rule="evenodd" transform="matrix(1.00018 0 0 1 3232.09 -19)"/><path d="M-777.455 4.36364C-758.349 4.36364-742.858 19.7787-742.858 38.7944-742.858 48.3024-746.727 56.9101-752.989 63.1409L-755.993 65.1543-727.273 171.636-827.636 171.636-798.916 65.1539-801.92 63.1409C-808.182 56.9101-812.051 48.3024-812.051 38.7944-812.051 19.7787-796.56 4.36364-777.455 4.36364Z" stroke="#FFFFFF" stroke-width="18.9091" stroke-linecap="butt" stroke-linejoin="miter" stroke-miterlimit="8" stroke-opacity="1" fill="none" fill-rule="evenodd" transform="matrix(1.00018 0 0 1 3232.09 -19)"/><text fill="#FFFFFF" fill-opacity="1" font-family="Calibri,Calibri_MSFontService,sans-serif" font-style="normal" font-variant="normal" font-weight="700" font-stretch="normal" font-size="60" text-anchor="start" direction="ltr" writing-mode="lr-tb" unicode-bidi="normal" text-decoration="none" transform="matrix(0.727403 0 0 0.727273 2686.22 100)">Q U A L I F I C A T I O N S<tspan fill="#FFFFFF" fill-opacity="1" font-family="Calibri,Calibri_MSFontService,sans-serif" font-style="normal" font-variant="normal" font-weight="700" font-stretch="normal" font-size="60" text-anchor="start" direction="ltr" writing-mode="lr-tb" unicode-bidi="normal" text-decoration="none" x="90.3699" y="68.75">P R O T E C T E D</tspan></text><path d="M-780.727-390.545C-700.596-390.545-635.636-336.331-635.636-269.455" stroke="#FFFFFF" stroke-width="18.9091" stroke-linecap="butt" stroke-linejoin="miter" stroke-miterlimit="8" stroke-opacity="1" fill="none" fill-rule="evenodd" transform="matrix(1.00018 0 0 1 3232.09 -19)"/><path d="M145.091 0C225.223-1.8472e-14 290.182 54.2143 290.182 121.091" stroke="#FFFFFF" stroke-width="18.9091" stroke-linecap="butt" stroke-linejoin="miter" stroke-miterlimit="8" stroke-opacity="1" fill="none" fill-rule="evenodd" transform="matrix(-1.00018 0 0 1 2602.89 -409.545)"/><path d="M101.455 0C157.487-1.29165e-14 202.909 39.8874 202.909 89.0909" stroke="#FFFFFF" stroke-width="18.9091" stroke-linecap="butt" stroke-linejoin="miter" stroke-miterlimit="8" stroke-opacity="1" fill="none" fill-rule="evenodd" transform="matrix(-1.00018 0 0 1 2556.33 -367.364)"/><path d="M-777.818-348.364C-721.786-348.364-676.364-308.476-676.364-259.273" stroke="#FFFFFF" stroke-width="18.9091" stroke-linecap="butt" stroke-linejoin="miter" stroke-miterlimit="8" stroke-opacity="1" fill="none" fill-rule="evenodd" transform="matrix(1.00018 0 0 1 3232.09 -19)"/><path d="M-919.273-270.545-919.273-141.65" stroke="#FFFFFF" stroke-width="18.9091" stroke-linecap="butt" stroke-linejoin="miter" stroke-miterlimit="8" stroke-opacity="1" fill="none" fill-rule="evenodd" transform="matrix(1.00018 0 0 1 3232.09 -19)"/><path d="M-635.636-270.545-635.636-141.65" stroke="#FFFFFF" stroke-width="18.9091" stroke-linecap="butt" stroke-linejoin="miter" stroke-miterlimit="8" stroke-opacity="1" fill="none" fill-rule="evenodd" transform="matrix(1.00018 0 0 1 3232.09 -19)"/><path d="M-878.545-260.364-878.545-141.432" stroke="#FFFFFF" stroke-width="18.9091" stroke-linecap="butt" stroke-linejoin="miter" stroke-miterlimit="8" stroke-opacity="1" fill="none" fill-rule="evenodd" transform="matrix(1.00018 0 0 1 3232.09 -19)"/><path d="M-676.364-260.364-676.364-141.432" stroke="#FFFFFF" stroke-width="18.9091" stroke-linecap="butt" stroke-linejoin="miter" stroke-miterlimit="8" stroke-opacity="1" fill="none" fill-rule="evenodd" transform="matrix(1.00018 0 0 1 3232.09 -19)"/><path d="M-664.727 10.5455C-664.727-7.73018-649.912-22.5455-631.636-22.5455-613.361-22.5455-598.545-7.73018-598.545 10.5455-598.545 28.8211-613.361 43.6364-631.636 43.6364-649.912 43.6364-664.727 28.8211-664.727 10.5455Z" stroke="#FFFFFF" stroke-width="18.9091" stroke-linecap="butt" stroke-linejoin="miter" stroke-miterlimit="8" stroke-opacity="1" fill="none" fill-rule="evenodd" transform="matrix(1.00018 0 0 1 3232.09 -19)"/><path d="M-337.455 43.6364-296.048 43.6365" stroke="#FFFFFF" stroke-width="18.9091" stroke-linecap="round" stroke-linejoin="miter" stroke-miterlimit="8" stroke-opacity="1" fill="none" fill-rule="evenodd" transform="matrix(1.00018 0 0 1 3232.09 -19)"/><path d="M-608 34.1818-596.774 43.8187" stroke="#FFFFFF" stroke-width="18.9091" stroke-linecap="round" stroke-linejoin="miter" stroke-miterlimit="8" stroke-opacity="1" fill="none" fill-rule="evenodd" transform="matrix(1.00018 0 0 1 3232.09 -19)"/><path d="M-434.182 24.7273-400.412 24.7274" stroke="#FFFFFF" stroke-width="18.9091" stroke-linecap="round" stroke-linejoin="miter" stroke-miterlimit="8" stroke-opacity="1" fill="none" fill-rule="evenodd" transform="matrix(1.00018 0 0 1 3232.09 -19)"/><path d="M-337.455-22.5455-337.455 43.2697" stroke="#FFFFFF" stroke-width="18.9091" stroke-linecap="round" stroke-linejoin="miter" stroke-miterlimit="8" stroke-opacity="1" fill="none" fill-rule="evenodd" transform="matrix(1.00018 0 0 1 3232.09 -19)"/><path d="M-150.545 10.9091-117.951 10.9092" stroke="#FFFFFF" stroke-width="18.9091" stroke-linecap="round" stroke-linejoin="miter" stroke-miterlimit="8" stroke-opacity="1" fill="none" fill-rule="evenodd" transform="matrix(1.00018 0 0 1 3232.09 -19)"/><path d="M-150.545 43.6364-109.139 43.6365" stroke="#FFFFFF" stroke-width="18.9091" stroke-linecap="round" stroke-linejoin="miter" stroke-miterlimit="8" stroke-opacity="1" fill="none" fill-rule="evenodd" transform="matrix(1.00018 0 0 1 3232.09 -19)"/><path d="M-150.545-22.5455-109.139-22.5453" stroke="#FFFFFF" stroke-width="18.9091" stroke-linecap="round" stroke-linejoin="miter" stroke-miterlimit="8" stroke-opacity="1" fill="none" fill-rule="evenodd" transform="matrix(1.00018 0 0 1 3232.09 -19)"/><path d="M-150.545-22.5455-150.545 43.2697" stroke="#FFFFFF" stroke-width="18.9091" stroke-linecap="round" stroke-linejoin="miter" stroke-miterlimit="8" stroke-opacity="1" fill="none" fill-rule="evenodd" transform="matrix(1.00018 0 0 1 3232.09 -19)"/><path d="M-248.727-22.5455-248.727 43.2697" stroke="#FFFFFF" stroke-width="18.9091" stroke-linecap="round" stroke-linejoin="miter" stroke-miterlimit="8" stroke-opacity="1" fill="none" fill-rule="evenodd" transform="matrix(1.00018 0 0 1 3232.09 -19)"/><path d="M-238.545 10.9091-204.521 43.8169" stroke="#FFFFFF" stroke-width="18.9091" stroke-linecap="round" stroke-linejoin="miter" stroke-miterlimit="8" stroke-opacity="1" fill="none" fill-rule="evenodd" transform="matrix(1.00018 0 0 1 3232.09 -19)"/><path d="M0 0 35.4674 31.7319" stroke="#FFFFFF" stroke-width="18.9091" stroke-linecap="round" stroke-linejoin="miter" stroke-miterlimit="8" stroke-opacity="1" fill="none" fill-rule="evenodd" transform="matrix(1.00018 0 0 -1 2992.05 -7.63178)"/><path d="M-31.2727 21.0909-31.2726 43.7518" stroke="#FFFFFF" stroke-width="18.9091" stroke-linecap="round" stroke-linejoin="miter" stroke-miterlimit="8" stroke-opacity="1" fill="none" fill-rule="evenodd" transform="matrix(1.00018 0 0 1 3232.09 -19)"/><path d="M0 0 23.7739 41.2408" stroke="#FFFFFF" stroke-width="18.9091" stroke-linecap="round" stroke-linejoin="miter" stroke-miterlimit="8" stroke-opacity="1" fill="none" fill-rule="evenodd" transform="matrix(1.00018 0 0 -1 3201.54 1.87716)"/><path d="M-32.9534 19.4226-56.7273-21.8182" stroke="#FFFFFF" stroke-width="18.9091" stroke-linecap="round" stroke-linejoin="miter" stroke-miterlimit="8" stroke-opacity="1" fill="none" fill-rule="evenodd" transform="matrix(1.00018 0 0 1 3232.09 -19)"/><path d="M-418.182-20.3636-386.601 43.2489" stroke="#FFFFFF" stroke-width="18.9091" stroke-linecap="round" stroke-linejoin="miter" stroke-miterlimit="8" stroke-opacity="1" fill="none" fill-rule="evenodd" transform="matrix(1.00018 0 0 1 3232.09 -19)"/><path d="M0 0 31.5813 63.6125" stroke="#FFFFFF" stroke-width="18.9091" stroke-linecap="round" stroke-linejoin="miter" stroke-miterlimit="8" stroke-opacity="1" fill="none" fill-rule="evenodd" transform="matrix(-1.00018 0 0 1 2812.69 -39.3636)"/><path d="M-501.818-22.5455-501.469 16.1788" stroke="#FFFFFF" stroke-width="18.9091" stroke-linecap="round" stroke-linejoin="miter" stroke-miterlimit="8" stroke-opacity="1" fill="none" fill-rule="evenodd" transform="matrix(1.00018 0 0 1 3232.09 -19)"/><path d="M-501.091 16C-501.091 30.8615-513.464 42.9091-528.727 42.9091" stroke="#FFFFFF" stroke-width="18.9091" stroke-linecap="butt" stroke-linejoin="miter" stroke-miterlimit="8" stroke-opacity="1" fill="none" fill-rule="evenodd" transform="matrix(1.00018 0 0 1 3232.09 -19)"/><path d="M26.9091 0C41.7705-6.94436e-15 53.8182 12.2104 53.8182 27.2727" stroke="#FFFFFF" stroke-width="18.9091" stroke-linecap="butt" stroke-linejoin="miter" stroke-miterlimit="8" stroke-opacity="1" fill="none" fill-rule="evenodd" transform="matrix(1.8373e-16 1 1.00018 -1.83697e-16 2676.35 -29.9091)"/></g></g></g></g></g></svg>