<svg width="80" height="81" viewBox="0 0 80 81" fill="none" xmlns="http://www.w3.org/2000/svg">
<path d="M16.6667 30.5001V33.8334M16.6667 57.1667V53.8334M23.3333 63.8334H26.6667M56.6667 57.1667C57.9852 57.1667 59.2741 57.5577 60.3705 58.2903C61.4668 59.0228 62.3213 60.064 62.8259 61.2822C63.3304 62.5004 63.4625 63.8408 63.2052 65.134C62.948 66.4272 62.3131 67.6151 61.3807 68.5475C60.4484 69.4798 59.2605 70.1147 57.9673 70.372C56.6741 70.6292 55.3336 70.4972 54.1154 69.9926C52.8973 69.488 51.8561 68.6335 51.1235 67.5372C50.391 66.4409 50 65.152 50 63.8334M56.6667 57.1667C54.8986 57.1667 53.2029 57.8691 51.9526 59.1194C50.7024 60.3696 50 62.0653 50 63.8334M56.6667 57.1667V53.8334M50 63.8334H46.6667M16.6667 30.5001C18.4348 30.5001 20.1305 29.7977 21.3807 28.5475C22.631 27.2972 23.3333 25.6015 23.3333 23.8334C23.3333 22.0653 22.631 20.3696 21.3807 19.1194C20.1305 17.8691 18.4348 17.1667 16.6667 17.1667C14.8986 17.1667 13.2029 17.8691 11.9526 19.1194C10.7024 20.3696 10 22.0653 10 23.8334C10 25.6015 10.7024 27.2972 11.9526 28.5475C13.2029 29.7977 14.8986 30.5001 16.6667 30.5001V30.5001ZM23.3333 63.8334C23.3333 62.0653 22.631 60.3696 21.3807 59.1194C20.1305 57.8691 18.4348 57.1667 16.6667 57.1667C14.8986 57.1667 13.2029 57.8691 11.9526 59.1194C10.7024 60.3696 10 62.0653 10 63.8334C10 65.6015 10.7024 67.2972 11.9526 68.5475C13.2029 69.7977 14.8986 70.5001 16.6667 70.5001C18.4348 70.5001 20.1305 69.7977 21.3807 68.5475C22.631 67.2972 23.3333 65.6015 23.3333 63.8334Z" stroke="#1CFEBA" stroke-width="4" stroke-linecap="round" stroke-linejoin="round"/>
<path d="M16.6673 47.1667C18.5083 47.1667 20.0007 45.6743 20.0007 43.8333C20.0007 41.9924 18.5083 40.5 16.6673 40.5C14.8264 40.5 13.334 41.9924 13.334 43.8333C13.334 45.6743 14.8264 47.1667 16.6673 47.1667Z" fill="#1CFEBA"/>
<path d="M36.6673 67.1667C38.5083 67.1667 40.0007 65.6743 40.0007 63.8333C40.0007 61.9924 38.5083 60.5 36.6673 60.5C34.8264 60.5 33.334 61.9924 33.334 63.8333C33.334 65.6743 34.8264 67.1667 36.6673 67.1667Z" fill="#1CFEBA"/>
<path d="M70.0007 23.8333C70.0007 32.5367 56.6673 43.8333 56.6673 43.8333C56.6673 43.8333 43.334 32.5367 43.334 23.8333C43.334 15.13 49.3007 10.5 56.6673 10.5C64.034 10.5 70.0007 15.13 70.0007 23.8333Z" stroke="#1CFEBA" stroke-width="4" stroke-linecap="round" stroke-linejoin="round"/>
<path d="M56.6673 27.1667C58.5083 27.1667 60.0007 25.6743 60.0007 23.8333C60.0007 21.9924 58.5083 20.5 56.6673 20.5C54.8264 20.5 53.334 21.9924 53.334 23.8333C53.334 25.6743 54.8264 27.1667 56.6673 27.1667Z" fill="#1CFEBA"/>
</svg>
