<svg width="80" height="80" viewBox="0 0 80 80" fill="none" xmlns="http://www.w3.org/2000/svg">
<path d="M15 12.5C15 11.837 14.7366 11.2011 14.2678 10.7322C13.7989 10.2634 13.163 10 12.5 10C11.837 10 11.2011 10.2634 10.7322 10.7322C10.2634 11.2011 10 11.837 10 12.5V67.5C10 68.163 10.2634 68.7989 10.7322 69.2678C11.2011 69.7366 11.837 70 12.5 70C13.163 70 13.7989 69.7366 14.2678 69.2678C14.7366 68.7989 15 68.163 15 67.5V12.5ZM28.3333 12.5C28.3333 11.837 28.5967 11.2011 29.0656 10.7322C29.5344 10.2634 30.1703 10 30.8333 10H59.1667C62.0398 10 64.7953 11.1414 66.827 13.173C68.8586 15.2047 70 17.9602 70 20.8333V59.1667C70 62.0398 68.8586 64.7953 66.827 66.827C64.7953 68.8586 62.0398 70 59.1667 70H30.8333C30.1703 70 29.5344 69.7366 29.0656 69.2678C28.5967 68.7989 28.3333 68.163 28.3333 67.5V53.2733C29.2313 53.4043 30.1474 53.3237 31.0088 53.0381C31.8701 52.7524 32.6528 52.2694 33.2944 51.6278C33.9361 50.9861 34.419 50.2034 34.7047 49.3421C34.9904 48.4808 35.071 47.5646 34.94 46.6667H46.6667V33.3333H34.94C35.071 32.4354 34.9904 31.5192 34.7047 30.6579C34.419 29.7966 33.9361 29.0139 33.2944 28.3722C32.6528 27.7306 31.8701 27.2476 31.0088 26.9619C30.1474 26.6763 29.2313 26.5957 28.3333 26.7267V12.5ZM33.3333 65H46.6667V51.6667H33.3333V65ZM51.6667 51.6667V65H59.1667C60.7138 65 62.1975 64.3854 63.2915 63.2915C64.3854 62.1975 65 60.7138 65 59.1667V51.6667H51.6667ZM65 33.3333H51.6667V46.6667H65V33.3333ZM65 28.3333V20.8333C65 19.2862 64.3854 17.8025 63.2915 16.7085C62.1975 15.6146 60.7138 15 59.1667 15H51.6667V28.3333H65ZM33.3333 15V28.3333H46.6667V15H33.3333ZM30.8267 30.6333C31.3217 31.0734 31.6219 31.692 31.6613 32.3532C31.7007 33.0144 31.476 33.6643 31.0367 34.16L28.07 37.5H37.5C38.163 37.5 38.7989 37.7634 39.2678 38.2322C39.7366 38.7011 40 39.337 40 40C40 40.663 39.7366 41.2989 39.2678 41.7678C38.7989 42.2366 38.163 42.5 37.5 42.5H28.0667L31.0333 45.84C31.4429 46.3393 31.6433 46.9777 31.5927 47.6215C31.542 48.2653 31.2442 48.8645 30.7617 49.2936C30.2791 49.7227 29.6492 49.9485 29.004 49.9236C28.3587 49.8987 27.748 49.625 27.3 49.16L20.6333 41.66C20.2271 41.2025 20.0027 40.6119 20.0027 40C20.0027 39.3881 20.2271 38.7975 20.6333 38.34L27.3 30.84C27.7401 30.3449 28.3587 30.0447 29.0199 30.0054C29.6811 29.966 30.3309 30.1906 30.8267 30.63V30.6333Z" fill="#1CFEBA"/>
</svg>
