<svg width="80" height="80" viewBox="0 0 80 80" fill="none" xmlns="http://www.w3.org/2000/svg">
<path d="M18.334 58.2867V68.1667C18.3375 69.3149 18.7952 70.415 19.6071 71.2269C20.419 72.0388 21.5191 72.4965 22.6673 72.5H57.334C58.4822 72.4965 59.5823 72.0388 60.3942 71.2269C61.2061 70.415 61.6638 69.3149 61.6673 68.1667V11.8333C61.6638 10.6851 61.2061 9.58498 60.3942 8.77309C59.5823 7.96119 58.4822 7.50352 57.334 7.5H22.6673C21.5191 7.50352 20.419 7.96119 19.6071 8.77309C18.7952 9.58498 18.3375 10.6851 18.334 11.8333V21.7133" stroke="#1CFEBA" stroke-width="6" stroke-linecap="round" stroke-linejoin="round"/>
<path d="M21.543 53.2449L34.788 39.9999L21.543 26.7549M34.788 53.2449H49.5496" stroke="#1CFEBA" stroke-width="6" stroke-linecap="round" stroke-linejoin="round"/>
</svg>
